<?xml version="1.0" encoding="UTF-8" standalone="no"?>
<svg version="1.1" xmlns="http://www.w3.org/2000/svg" xmlns:xlink="http://www.w3.org/1999/xlink" x="0px" y="0px"
	 viewBox="0 0 48 48" style="enable-background:new 0 0 48 48;" xml:space="preserve">
   <rect x="15.9" y="24.9" width="7" height="7"/>
   <rect x="24.9" y="16.1" width="7.2" height="7"/>
   <rect x="15.9" y="16.1" width="7" height="7"/>
   <path d="M33.3,11.1H14.7c-1.9,0-3.6,1.7-3.6,3.6v18.6c0,1.9,1.7,3.6,3.6,3.6h18.6c1.9,0,3.6-1.7,3.6-3.6V14.7
     C36.9,12.8,35.2,11.1,33.3,11.1z M34.3,33.3c0,0.6-0.4,1-1,1H14.7c-0.6,0-1-0.4-1-1V14.7c0-0.6,0.4-1,1-1h18.6c0.6,0,1,0.4,1,1
     V33.3z"/>
</svg>
