<?xml version="1.0" encoding="UTF-8" standalone="no"?>
<svg version="1.1" xmlns="http://www.w3.org/2000/svg" xmlns:xlink="http://www.w3.org/1999/xlink" x="0px" y="0px"
	 viewBox="0 0 48 48" style="enable-background:new 0 0 48 48;" xml:space="preserve">
	 <circle cx="24" cy="23.7" r="4"/>
		<path d="M20.3,11.3L18,13.8h-3.9c-1.4,0-2.5,1.1-2.5,2.5v14.9c0,1.4,1.1,2.5,2.5,2.5h19.9c1.4,0,2.5-1.1,2.5-2.5V16.3
			c0-1.4-1.1-2.5-2.5-2.5H30l-2.3-2.5L20.3,11.3L20.3,11.3z M24,30c-3.4,0-6.2-2.8-6.2-6.2s2.8-6.2,6.2-6.2s6.2,2.8,6.2,6.2
			S27.4,30,24,30z"/>
</svg>
