<?xml version="1.0" encoding="UTF-8" standalone="no"?>
<svg version="1.1" xmlns="http://www.w3.org/2000/svg" xmlns:xlink="http://www.w3.org/1999/xlink" x="0px" y="0px"
	 viewBox="0 0 48 48" style="enable-background:new 0 0 48 48;" xml:space="preserve">
   <path d="M27.7,24.2c0,1.7-0.6,3.5-1.7,5.2c-1.1,1.7-2.7,2.7-4.6,3.2c-1.1,0.3-2.2,0.4-3.3,0.4c-2-0.1-3.6-0.7-5.2-1.8
 		c-1.3-0.8-2.1-2-2.8-3.3c-0.6-1-0.8-2-1-3.1C9,24.2,9,23.5,9,22.9c0.1-1.7,0.6-3.2,1.5-4.6c1.4-2.1,3.2-3.3,5.7-4
 		c0.6-0.1,1-0.1,1.5-0.3c0.4,0,0.8,0,1.3,0c1.1,0,2.2,0.3,3.3,0.8c0.8,0.4,1.5,0.8,2.2,1.4c0.1,0,0.1,0.1,0.3,0.3
 		c-0.1,0.1-0.1,0.1-0.3,0.3c-0.8,0.8-1.7,1.5-2.4,2.4c-0.1,0.1-0.1,0.1-0.3,0c-0.7-0.7-1.5-1.1-2.5-1.3c-1.5-0.3-2.9,0.1-4.2,1
 		c-1.3,1-2.1,2.2-2.2,3.8c-0.3,1.7,0.1,3.1,1.1,4.5c1,1.1,2.1,2,3.6,2.1c1.4,0.1,2.8,0,4-1c1-0.7,1.5-1.5,1.8-2.7h-0.1
 		c-1.5,0-3.2,0-4.7,0c-0.1,0-0.1,0-0.1-0.1c0-1.1,0-2.4,0-3.5c0-0.1,0-0.1,0.1-0.1c2.9,0,5.7,0,8.7,0c0.1,0,0.1,0,0.1,0.1
 		c0,0.4,0.1,0.8,0.1,1.3C27.7,23.5,27.7,23.9,27.7,24.2z M39,24.1l-3.3,0.1v3.2c0,0.1,0,0.1-0.1,0.1h-2.1c-0.1,0-0.1,0-0.1-0.1v-3.2
 		h-3.2c-0.1,0-0.1,0-0.1-0.1V22c0-0.1,0-0.1,0.1-0.1h3.2v-3.2c0-0.1,0-0.1,0.1-0.1h2.1c0.1,0,0.1,0,0.1,0.1v3.2h3.2
 		c0.1,0,0.1,0,0.1,0.1V24.1z"/>
</svg>
