<?xml version="1.0" encoding="UTF-8" standalone="no"?>
<svg version="1.1" xmlns="http://www.w3.org/2000/svg" xmlns:xlink="http://www.w3.org/1999/xlink" x="0px" y="0px"
	 viewBox="0 0 48 48" style="enable-background:new 0 0 48 48;" xml:space="preserve">
   <circle cx="31.2" cy="16.8" r="1.6"/>
   <path d="M24,17.1c-3.8,0-6.9,3.1-6.9,6.9s3.1,6.9,6.9,6.9s6.9-3.1,6.9-6.9S27.8,17.1,24,17.1z M24,28.5
     c-2.5,0-4.5-2-4.5-4.5s2-4.5,4.5-4.5s4.5,2,4.5,4.5S26.5,28.5,24,28.5z"/>
   <path d="M36.8,15.2c-0.3-0.9-0.8-1.6-1.6-2.4s-1.5-1.2-2.4-1.6c-0.9-0.3-1.8-0.6-3.3-0.6c-1.4-0.1-1.9-0.1-5.6-0.1
     c-3.7,0-4.1,0-5.6,0.1c-1.4,0.1-2.4,0.3-3.3,0.6c-0.9,0.3-1.6,0.8-2.4,1.6s-1.2,1.5-1.6,2.4c-0.3,0.9-0.6,1.8-0.6,3.3
     c-0.1,1.4-0.1,1.9-0.1,5.6c0,3.7,0,4.1,0.1,5.6c0.1,1.4,0.3,2.4,0.6,3.3c0.3,0.9,0.8,1.6,1.6,2.4s1.5,1.2,2.4,1.6
     c0.9,0.3,1.8,0.6,3.3,0.6c1.4,0.1,1.9,0.1,5.6,0.1s4.1,0,5.6-0.1c1.4-0.1,2.4-0.3,3.3-0.6c0.9-0.3,1.6-0.8,2.4-1.6
     s1.2-1.5,1.6-2.4c0.3-0.9,0.6-1.8,0.6-3.3c0.1-1.4,0.1-1.9,0.1-5.6s0-4.1-0.1-5.6C37.4,17,37.1,16,36.8,15.2z M35,29.5
     c-0.1,1.3-0.3,2-0.5,2.5c-0.2,0.6-0.5,1.1-1,1.6c-0.5,0.5-0.9,0.8-1.6,1c-0.5,0.2-1.2,0.4-2.5,0.5c-1.4,0.1-1.9,0.1-5.5,0.1
     s-4,0-5.5-0.1c-1.3-0.1-2-0.3-2.5-0.5c-0.6-0.2-1.1-0.5-1.6-1c-0.5-0.5-0.8-0.9-1-1.6c-0.2-0.5-0.4-1.2-0.5-2.5
     c-0.1-1.4-0.1-1.9-0.1-5.5s0-4,0.1-5.5c0.1-1.3,0.3-2,0.5-2.5c0.2-0.6,0.5-1.1,1-1.6c0.5-0.5,0.9-0.8,1.6-1
     c0.5-0.2,1.2-0.4,2.5-0.5c1.4-0.1,1.8-0.1,5.5-0.1c3.6,0,4,0,5.5,0.1c1.3,0.1,2,0.3,2.5,0.5c0.6,0.2,1.1,0.5,1.6,1
     c0.5,0.5,0.8,0.9,1,1.6c0.2,0.5,0.4,1.2,0.5,2.5c0.1,1.4,0.1,1.9,0.1,5.5S35.1,28,35,29.5z"/>
</svg>
