<?xml version="1.0" encoding="UTF-8" standalone="no"?>
<svg version="1.1" xmlns="http://www.w3.org/2000/svg" xmlns:xlink="http://www.w3.org/1999/xlink" x="0px" y="0px"
	 viewBox="0 0 48 48" style="enable-background:new 0 0 48 48;" xml:space="preserve">
   <path d="M17.9,34.5h-4.9V18.6h4.9V34.5z M15.5,16.4c-1.6,0-3-1.3-3-3s1.3-3,3-3c1.6,0,3,1.3,3,3
 		C18.3,15.2,17,16.4,15.5,16.4z M31.6,34.5V26c0-2.3-0.8-3.5-2.7-3.5c-2,0-3,1.3-3,3.5v8.5h-4.8V18.6h4.8v2.1c0,0,1.4-2.7,4.8-2.7
 		s5.8,2.1,5.8,6.4s0,10.2,0,10.2H31.6z"/>
</svg>
