<?xml version="1.0" encoding="UTF-8" standalone="no"?>
<svg version="1.1" xmlns="http://www.w3.org/2000/svg" xmlns:xlink="http://www.w3.org/1999/xlink" x="0px" y="0px"
	 viewBox="0 0 48 48" style="enable-background:new 0 0 48 48;" xml:space="preserve">
   <path d="M28.1,27l-0.4-0.4c1.5-1.8,2.4-4,2.4-6.5c0-5.5-4.5-10-10-10s-10,4.5-10,10s4.5,10,10,10
     c2.5,0,4.8-0.9,6.5-2.4l0.4,0.4v1.2l7.7,7.7l2.3-2.3L29.3,27H28.1z M20,27c-3.8,0-6.9-3.1-6.9-6.9s3.1-6.9,6.9-6.9S27,16.2,27,20
     S23.9,27,20,27z"/>
</svg>
