<?xml version="1.0" encoding="UTF-8" standalone="no"?>
<svg version="1.1" xmlns="http://www.w3.org/2000/svg" xmlns:xlink="http://www.w3.org/1999/xlink" x="0px" y="0px"
	 viewBox="0 0 48 48" xml:space="preserve">
	 <path d="M35,14.2c-1.4-0.4-2.9-0.6-4.3-0.6c-2.4,0-5,0.5-6.8,1.8c-1.8-1.4-4.4-1.8-6.7-1.8c-2.4,0-5,0.5-6.8,1.8v18
 		c0,0.3,0.3,0.6,0.6,0.6c0.1,0,0.2-0.1,0.3-0.1c1.7-0.8,4-1.4,5.8-1.4c2.4,0,5,0.5,6.7,1.8c1.7-1,4.7-1.8,6.8-1.8
 		c2,0,4.1,0.4,5.8,1.3c0.1,0.1,0.2,0.1,0.3,0.1c0.3,0,0.6-0.3,0.6-0.6V15.4C36.8,14.9,36,14.5,35,14.2z M35,30.8
 		c-1.4-0.4-2.8-0.6-4.3-0.6c-2.1,0-5.1,0.8-6.8,1.8V17.9c1.7-1,4.7-1.8,6.8-1.8c1.5,0,2.9,0.2,4.3,0.6V30.8z"/>
</svg>
