<?xml version="1.0" encoding="UTF-8" standalone="no"?>
<svg version="1.1" xmlns="http://www.w3.org/2000/svg" xmlns:xlink="http://www.w3.org/1999/xlink" x="0px" y="0px"
	 viewBox="0 0 48 48" style="enable-background:new 0 0 48 48;" xml:space="preserve">
   <path d="M33.5,17.5h-1.9l-0.3-0.1l-15.6-6.4l-1.1-0.4l-0.8,2.1l1.1,0.4l10.8,4.5H14.8c-1.8,0-3.2,1.4-3.2,3.2v10.7
     c0,1.8,1.4,3.2,3.2,3.2h18.7c1.8,0,3.2-1.4,3.2-3.2V20.7C36.6,18.9,35.3,17.5,33.5,17.5z M26.3,31.8c-1.2,0-2.1-1-2.1-2.1
     s1-2.1,2.1-2.1c1.1,0,2.1,1,2.1,2.1S27.4,31.8,26.3,31.8z M32.4,31.8c-1.1,0-2.1-1-2.1-2.1s1-2.1,2.1-2.1c1.1,0,2.1,1,2.1,2.1
     S33.5,31.8,32.4,31.8z M34.6,25.1H13.9v-4.1h20.7V25.1z"/>
</svg>
