<?xml version="1.0" encoding="UTF-8" standalone="no"?>
<svg version="1.1" xmlns="http://www.w3.org/2000/svg" xmlns:xlink="http://www.w3.org/1999/xlink" x="0px" y="0px"
	 viewBox="0 0 48 48" style="enable-background:new 0 0 48 48;" xml:space="preserve">
   <path d="M17.2,33.8c-1.7,0-3-1.4-3-3c0-1.7,1.4-3,3-3c1.7,0,3,1.4,3,3C20.3,32.4,18.9,33.8,17.2,33.8z M24,33.8
 		c0-5.4-4.4-9.8-9.8-9.8v-3.9c7.6,0,13.7,6.1,13.7,13.7H24z M31.9,33.8c0-9.8-7.9-17.7-17.7-17.7v-3.9c11.9,0,21.6,9.7,21.6,21.6
 		H31.9z"/>
</svg>
