<?xml version="1.0" encoding="UTF-8" standalone="no"?>
<svg version="1.1" xmlns="http://www.w3.org/2000/svg" xmlns:xlink="http://www.w3.org/1999/xlink" x="0px" y="0px"
	 viewBox="0 0 48 48" xml:space="preserve">
   <path d="M17,24.1c0,0.3-0.1,0.6-0.1,0.9l9.5,5.5c0.7-0.6,1.6-1,2.6-1c2.1,0,3.9,1.7,3.9,3.9c0,2.1-1.7,3.9-3.9,3.9
 		c-2.1,0-3.9-1.7-3.9-3.9c0-0.3,0-0.6,0.1-0.9L15.7,27c-0.7,0.7-1.7,1.1-2.7,1.1c-2.2,0-4-1.8-4-4s1.8-4,4-4c1.1,0,2,0.4,2.7,1.1
 		l9.4-5.5C25.1,15.3,25,15,25,14.7c0-2.2,1.8-4,4-4s4,1.8,4,4c0,2.2-1.8,4-4,4c-1.1,0-2-0.4-2.7-1.1l-9.4,5.5
 		C16.9,23.4,17,23.7,17,24.1z"/>
</svg>
