<?xml version="1.0" encoding="UTF-8" standalone="no"?>
<svg version="1.1" xmlns="http://www.w3.org/2000/svg" xmlns:xlink="http://www.w3.org/1999/xlink" viewBox="0 0 1000 1000">
  <path d="M940 840c0 55.2-44.8 100-100 100H160c-55.2 0-100-44.8-100-100V160c0-55.2 44.8-100 100-100h680c55.2 0 100 44.8 100 100v680z" fill="#fff"/><path d="M840 0H160C71.8 0 0 71.8 0 160v680c0 88.2 71.8 160 160 160h680c88.2 0 160-71.8 160-160V160c0-88.2-71.8-160-160-160zm100 840c0 55.2-44.8 100-100 100H160c-55.2 0-100-44.8-100-100V160c0-55.2 44.8-100 100-100h680c55.2 0 100 44.8 100 100v680z" fill="#191919"/><defs><path id="a" d="M598.9 770H401.6c-4 0-7.2-3.2-7.2-7.2V427.1c0-5-4-9-9-9H210.2c-4 0-7.2-3.2-7.2-7.2V237.2c0-4 3.2-7.2 7.2-7.2h579.6c4 0 7.2 3.2 7.2 7.2v173.7c0 4-3.2 7.2-7.2 7.2H613.3c-4 0-7.2 3.2-7.2 7.2v337.5c0 4-3.2 7.2-7.2 7.2z"/></defs><use xlink:href="#a" overflow="visible" fill-rule="evenodd" clip-rule="evenodd" fill="#191919"/><clipPath id="b"><use xlink:href="#a" overflow="visible"/></clipPath><g clip-path="url(#b)"><defs><path id="c" d="M-4271.8-3240.4h8850.6v7201.8h-8850.6z"/></defs><use xlink:href="#c" overflow="visible" fill="#191919"/><clipPath id="d"><use xlink:href="#c" overflow="visible"/></clipPath><path clip-path="url(#d)" fill="#191919" d="M194 221h612v558H194z"/></g>
</svg>
