<?xml version="1.0" encoding="UTF-8" standalone="no"?>
<svg version="1.1" xmlns="http://www.w3.org/2000/svg" xmlns:xlink="http://www.w3.org/1999/xlink" x="0px" y="0px"
	 viewBox="0 0 48 48" style="enable-background:new 0 0 48 48;" xml:space="preserve">
   <path d="M29.8,34.6C29,35.4,27.4,36,25.8,36c-0.1,0-0.1,0-0.2,0h0c-5.3,0-6.7-4-6.7-6.4v-7.3c0-0.1,0-0.1-0.1-0.1h-2.6
 		c-0.1,0-0.1,0-0.1-0.1v-3.3c0,0,0-0.1,0.1-0.1c2.7-1.1,4.3-3.2,4.7-6.4C20.9,12,21,12,21,12h3.4c0.1,0,0.1,0,0.1,0.1V18
 		c0,0.1,0,0.1,0.1,0.1h4.2c0.1,0,0.1,0,0.1,0.1v3.9c0,0.1,0,0.1-0.1,0.1h-4.3c-0.1,0-0.1,0-0.1,0.1l0,7c0,1.6,0.8,2.4,2.3,2.4
 		c0.6,0,1.3-0.1,1.9-0.4c0.1,0,0.1,0,0.1,0.1l1.1,3.2C29.9,34.5,29.9,34.6,29.8,34.6z"/>
</svg>
