<?xml version="1.0" encoding="UTF-8" standalone="no"?>
<svg version="1.1" xmlns="http://www.w3.org/2000/svg" xmlns:xlink="http://www.w3.org/1999/xlink" x="0px" y="0px"
	 viewBox="0 0 48 48" style="enable-background:new 0 0 48 48;" xml:space="preserve">
   <path d="M33.6,18.9c0,0.3,0,0.4,0,0.7c0,6.6-5,14-14,14c-2.7,0-5.4-0.9-7.6-2.3c0.4,0,0.7,0.1,1.1,0.1
		c2.3,0,4.4-0.9,6.1-2.1c-2.1,0-4-1.4-4.6-3.4c0.3,0,0.7,0.1,0.9,0.1c0.4,0,0.9,0,1.3-0.1c-2.3-0.4-4-2.4-4-4.9
		c0.7,0.4,1.4,0.7,2.3,0.7c-1.3-0.9-2.3-2.3-2.3-4c0-0.9,0.3-1.7,0.7-2.4c2.4,3,6,5,10.3,5.1c-0.1-0.4-0.1-0.9-0.1-1.1
		c0-2.7,2.3-5,5-5c1.4,0,2.7,0.7,3.6,1.6c1.1-0.3,2.3-0.7,3.1-1.1c-0.4,1.1-1.1,2.1-2.3,2.7c1-0.1,2-0.4,2.9-0.9
		C35.4,17.4,34.4,18.4,33.6,18.9z"/>
</svg>
