<?xml version="1.0" encoding="UTF-8" standalone="no"?>
<svg version="1.1" xmlns="http://www.w3.org/2000/svg" xmlns:xlink="http://www.w3.org/1999/xlink" x="0px" y="0px"
	 viewBox="0 0 48 48" style="enable-background:new 0 0 48 48;" xml:space="preserve">
   <path d="M25.2,9.5C17.9,9.5,12,15.4,12,22.7c0,2.5,0.7,4.8,1.9,6.8l-2.4,7.1l7.3-2.3c1.9,1,4.1,1.6,6.4,1.6
     c7.3,0,13.3-5.9,13.3-13.2S32.6,9.5,25.2,9.5z M25.2,33.7c-2.3,0-4.4-0.7-6.1-1.8l-4.3,1.4l1.4-4.1c-1.3-1.8-2.1-4.1-2.1-6.5
     c0-6.1,5-11.1,11.1-11.1c6.1,0,11.1,5,11.1,11.1C36.4,28.8,31.4,33.7,25.2,33.7z"/>
   <path d="M31.3,25.3c-0.3-0.2-1.9-0.9-2.2-1c-0.3-0.1-0.5-0.2-0.7,0.2c-0.2,0.3-0.8,1-1,1.3c-0.2,0.2-0.4,0.2-0.7,0.1
     c-0.3-0.2-1.4-0.5-2.6-1.6c-1-0.9-1.6-1.9-1.8-2.2c-0.2-0.3,0-0.5,0.1-0.7c0.1-0.1,0.3-0.4,0.5-0.6c0.2-0.2,0.2-0.3,0.3-0.5
     c0.1-0.2,0.1-0.4,0-0.6c-0.1-0.2-0.7-1.7-1-2.4c-0.3-0.6-0.5-0.5-0.7-0.5c-0.2,0-0.4,0-0.6,0c-0.2,0-0.6,0.1-0.9,0.4
     c-0.3,0.3-1.1,1.1-1.1,2.7c0,1.6,1.2,3.1,1.3,3.3c0.2,0.2,2.2,3.6,5.6,4.9c3.3,1.3,3.3,0.9,3.9,0.8c0.6-0.1,1.9-0.8,2.2-1.5
     c0.3-0.8,0.3-1.4,0.2-1.5C31.8,25.5,31.6,25.5,31.3,25.3z"/>
</svg>
