<?xml version="1.0" encoding="UTF-8" standalone="no"?>
<svg version="1.1" xmlns="http://www.w3.org/2000/svg" xmlns:xlink="http://www.w3.org/1999/xlink" x="0px" y="0px"
	 viewBox="0 0 48 48" xml:space="preserve">
   <path d="M36.5,17.9c-0.3-1.4-1.4-2.4-2.8-2.5C30.5,15,27.2,15,24,15c-3.2,0-6.5,0-9.7,0.4c-1.4,0.2-2.5,1.2-2.8,2.5
     c-0.4,2-0.5,4.1-0.5,6.1s0,4.1,0.4,6.1c0.3,1.4,1.4,2.4,2.8,2.5C17.5,33,20.8,33,24,33c3.2,0,6.5,0,9.7-0.4
     c1.4-0.2,2.5-1.2,2.8-2.5c0.5-2,0.5-4.1,0.5-6.1C36.9,22,36.9,19.9,36.5,17.9z M20.7,28c0-2.9,0-5.7,0-8.5
     c2.7,1.4,5.5,2.8,8.2,4.3C26.1,25.2,23.4,26.6,20.7,28z"/>
</svg>
